<svg xmlns="http://www.w3.org/2000/svg" width="312" height="384" viewBox="0 0 312 384">
  <g id="Home" transform="translate(-63 -105)">
    <rect id="Rectangle_7" data-name="Rectangle 7" width="312" height="384" transform="translate(63 105)" fill="none"/>
    <path id="Path_3" data-name="Path 3" d="M48.225,26.558q0,4.144-1.813,6.253T40.529,34.92a8.76,8.76,0,0,1-3.034-.444,1.834,1.834,0,0,1-1.184-1.924,9.784,9.784,0,0,1,.333-1.591,13.816,13.816,0,0,0,.333-1.443,1.569,1.569,0,0,0-.37-1.036,1.274,1.274,0,0,0-1.036-.444q-2.96,0-5.883,8.066T26.765,48.758a9.568,9.568,0,0,0,.37,2.775,1.517,1.517,0,0,0,1.554,1.221,2.156,2.156,0,0,0,1.591-.629,7.661,7.661,0,0,0,1.332-2.183q.7-1.554,1.147-2.331a4.671,4.671,0,0,1,1.887-1.554,8.611,8.611,0,0,1,4.033-.777,9.514,9.514,0,0,1,3.293.555,2.04,2.04,0,0,1,1.517,2.035q0,6.808-5.439,12.617T25.729,66.3A9.161,9.161,0,0,1,17.4,61.6a20.075,20.075,0,0,1-2.849-10.619,47.29,47.29,0,0,1,6.253-23.643q6.253-11.063,17.945-11.063a8.807,8.807,0,0,1,7.03,2.812A11,11,0,0,1,48.225,26.558ZM60.684,54.012,57.4,62a17.851,17.851,0,0,1-1.443,2.615,2.321,2.321,0,0,1-2.035,1.017,11.806,11.806,0,0,1-3.145-.513,16.469,16.469,0,0,1-2.96-1.1A5.293,5.293,0,0,1,46.079,62.7a2.936,2.936,0,0,1-.592-1.9,2.554,2.554,0,0,1,.222-.916q.222-.549.37-.918l2.072-4.727A1.648,1.648,0,0,1,46.6,52.4a15.686,15.686,0,0,1,.555-4.3,19.454,19.454,0,0,1,1.48-3.714,4.1,4.1,0,0,1,1.85-2.1,8.13,8.13,0,0,1,2.627-.331h.962l.444-.894L65.171,20.5A17.41,17.41,0,0,1,66.8,17.939a3.609,3.609,0,0,1,3.034-1.149,14.857,14.857,0,0,1,2.294.185q1.184.185,3.922.852t3.293,2.149a11.715,11.715,0,0,1,.555,4l.222,20.9-.592,16.23q0,2.965-1.258,3.891a7.64,7.64,0,0,1-4.366.926,10.6,10.6,0,0,1-4.44-.741q-1.554-.741-1.554-3.261l.106-2.071.853-10.5A22.426,22.426,0,0,1,66.9,52.9a2.944,2.944,0,0,1-2.537,1.11ZM69.5,42.024l.444-4.46.814-7.435-2.962,7.136L65.64,41.95Zm30.644-6.438-.149,1.5a66.78,66.78,0,0,1-1.155,7.473q-.783,3.662-2.2,9.267L95,60.7a28.542,28.542,0,0,1-1.141,3.662Q93.3,65.7,90.287,65.7a16.433,16.433,0,0,1-5.078-.888q-2.722-.888-2.722-2.738a33.556,33.556,0,0,1,.74-3.441q.74-3.071,1.184-4.625l6.364-24.346,2.812-9.324a8.5,8.5,0,0,1,1.11-2.59,2.2,2.2,0,0,1,1.924-.962A17.979,17.979,0,0,1,102.578,18a9.015,9.015,0,0,1,4.921,3.8,28.372,28.372,0,0,1,2.738,8.407,53.327,53.327,0,0,1,1.184,10.562q.592-4.546,1.369-8.542t1.7-7.625q.925-3.629,1.258-4.949a5.974,5.974,0,0,1,.777-1.943,1.832,1.832,0,0,1,1-.77,4.465,4.465,0,0,1,1.147-.147A12.815,12.815,0,0,1,124,17.828a11.784,11.784,0,0,1,2.812,1.556,2.23,2.23,0,0,1,.518,1.631,10.123,10.123,0,0,1-.3,2.186q-.3,1.3-.518,2.409l-5.624,22.53-2.072,6.966q-.666,2.075-1.184,3.891a14.52,14.52,0,0,0-.518,2.112,7.484,7.484,0,0,0,.111,1.075q.111.7.259,1.3a1.546,1.546,0,0,1-1.186,1.668,11.481,11.481,0,0,1-3.038.334,12.638,12.638,0,0,1-6.3-1.233,5.327,5.327,0,0,1-2.521-2.541,19.663,19.663,0,0,1-.741-3.1l-2.3-13.752ZM144.869,28.7l2.22.74a28.616,28.616,0,0,1,3.071,1.48,1.7,1.7,0,0,1,.851,1.554,10.234,10.234,0,0,1-.37,2.59q-.592,1.776-.814,2.59l-2.516,9.028-3.922,14.8a10.556,10.556,0,0,1-1.144,3.182,2.568,2.568,0,0,1-2.325.962,28.5,28.5,0,0,1-5.979-.665q-3.1-.665-3.1-2.437a12.515,12.515,0,0,1,.591-3.1q.591-2.068.813-2.806l7.985-26.957.3-.886L139.27,28.7H134.02a24.468,24.468,0,0,1-2.662-.112,2.266,2.266,0,0,1-1.368-.521,2.135,2.135,0,0,1-.554-1.043,5.105,5.105,0,0,1-.148-1.153,16.317,16.317,0,0,1,.7-3.984,12.8,12.8,0,0,1,1.368-3.538,2.612,2.612,0,0,1,1.367-1.155,6.894,6.894,0,0,1,1.738-.186l2.809.074,7.836.3,9.463.37,4.583.222a3.6,3.6,0,0,1,2.033.444,2.161,2.161,0,0,1,.628,1.85,9.9,9.9,0,0,1-.518,3.071q-.518,1.591-.925,2.849a7.314,7.314,0,0,1-1.036,2.109,2.2,2.2,0,0,1-1.887.851l-1.776-.074-6.29-.37h-4.514Zm26,25.308L167.587,62a17.85,17.85,0,0,1-1.443,2.615,2.321,2.321,0,0,1-2.035,1.017,11.806,11.806,0,0,1-3.145-.513,16.469,16.469,0,0,1-2.96-1.1,5.293,5.293,0,0,1-1.739-1.319,2.936,2.936,0,0,1-.592-1.9,2.555,2.555,0,0,1,.222-.916q.222-.549.37-.918l2.072-4.727a1.648,1.648,0,0,1-1.554-1.838,15.686,15.686,0,0,1,.555-4.3,19.454,19.454,0,0,1,1.48-3.714,4.1,4.1,0,0,1,1.85-2.1,8.13,8.13,0,0,1,2.627-.331h.962l.444-.894L175.357,20.5a17.411,17.411,0,0,1,1.628-2.557,3.609,3.609,0,0,1,3.034-1.149,14.857,14.857,0,0,1,2.294.185q1.184.185,3.922.852t3.293,2.149a11.716,11.716,0,0,1,.555,4l.222,20.9-.592,16.23q0,2.965-1.258,3.891a7.64,7.64,0,0,1-4.366.926,10.6,10.6,0,0,1-4.44-.741q-1.554-.741-1.554-3.261l.106-2.071.853-10.5A22.426,22.426,0,0,1,177.09,52.9a2.944,2.944,0,0,1-2.537,1.11Zm8.813-11.988.444-4.46.814-7.435-2.962,7.136-2.152,4.684ZM203.258,28.7q-1.626.666-2.7,1.073a5.106,5.106,0,0,1-1.516.407q-1.035,0-.887-1.184a6.877,6.877,0,0,1,.259-1.665q.259-1,.555-1.887l1.036-3.7a18.169,18.169,0,0,1,.739-2.294,3.846,3.846,0,0,1,2.108-1.665,19.428,19.428,0,0,1,4.624-1.258,32.554,32.554,0,0,1,5.327-.481q10.653,0,16.164,5.476t5.512,14.726q0,11.174-8.618,20.35T205.78,65.778a4.943,4.943,0,0,1-3.366-.962q-1.072-.962-2.7-2.738a32.181,32.181,0,0,1-2.515-3.034,5,5,0,0,1-.888-2.96,23.347,23.347,0,0,1,.924-5.587q.924-3.515,1.516-5.587Zm4.289-1.258a18.1,18.1,0,0,1,5.476,1.591q1.85,1,1.85,2.331a8.259,8.259,0,0,1-.3,2.035q-.3,1.147-.444,1.739l-4.514,17.464q3.871-.444,8.078-4.551t4.206-11.8a8.281,8.281,0,0,0-3.029-6.771A12.473,12.473,0,0,0,210.729,27a8.694,8.694,0,0,0-1.554.148ZM15.581,135.012,12.3,143a17.852,17.852,0,0,1-1.443,2.615A2.321,2.321,0,0,1,8.82,146.63a11.806,11.806,0,0,1-3.145-.513,16.47,16.47,0,0,1-2.96-1.1A5.293,5.293,0,0,1,.976,143.7a2.936,2.936,0,0,1-.592-1.9,2.554,2.554,0,0,1,.222-.916q.222-.549.37-.918l2.072-4.727A1.648,1.648,0,0,1,1.494,133.4a15.686,15.686,0,0,1,.555-4.3,19.454,19.454,0,0,1,1.48-3.714,4.1,4.1,0,0,1,1.85-2.1,8.13,8.13,0,0,1,2.627-.331h.962l.444-.894L20.068,101.5A17.411,17.411,0,0,1,21.7,98.939,3.609,3.609,0,0,1,24.73,97.79a14.857,14.857,0,0,1,2.294.185q1.184.185,3.922.852t3.293,2.149a11.716,11.716,0,0,1,.555,4l.222,20.9-.592,16.23q0,2.965-1.258,3.891a7.64,7.64,0,0,1-4.366.926,10.6,10.6,0,0,1-4.44-.741q-1.554-.741-1.554-3.261l.106-2.071.853-10.5A22.426,22.426,0,0,1,21.8,133.9a2.944,2.944,0,0,1-2.537,1.11Zm8.813-11.988.444-4.46.814-7.435-2.962,7.136-2.152,4.684Zm28.16,11.322,7.252.074H64.32a4.533,4.533,0,0,1,1.591.218.966.966,0,0,1,.555,1.018,19.946,19.946,0,0,1-.926,4.8,19.853,19.853,0,0,1-1.666,4.471,3.3,3.3,0,0,1-1.777,1.527,8.735,8.735,0,0,1-2.592.327H49.138a9.831,9.831,0,0,1-3.332-.445,6.4,6.4,0,0,1-2.592-2.487q-1.407-2.041-2.518-3.9a6.585,6.585,0,0,1-1.111-3.265,15.013,15.013,0,0,1,.519-3.378q.519-2.115.741-3.154L46.1,111.224l2.74-9.278A14.559,14.559,0,0,1,50.1,98.421q.518-.779,2.666-.779a18.247,18.247,0,0,1,4.147.52,14.075,14.075,0,0,1,3.443,1.189,1.922,1.922,0,0,1,1.222,1.635,11.774,11.774,0,0,1-.666,3.157q-.666,2.118-.888,2.935L54.4,127.064ZM84.67,110l1.554.74,2.368,1.184a1.463,1.463,0,0,1,.74,1.332,5.976,5.976,0,0,1-.22,1.7q-.22.74-.924,2.442l.675.074q2.552,0,6.041.074a27.066,27.066,0,0,1,5.064.444q1.575.37,1.427,1.628a13.322,13.322,0,0,1-.62,3.885,27.023,27.023,0,0,1-1.35,3.589,8.157,8.157,0,0,1-1.24,2.072,1.857,1.857,0,0,1-1.386.518l-2.116-.148-9.776-.3-1.716,6.289,5.18.149h5.624a5.7,5.7,0,0,1,1.665.259,1.607,1.607,0,0,1,1.11.888,3.981,3.981,0,0,1,.259,1.517,15.253,15.253,0,0,1-.628,3.922,9.156,9.156,0,0,1-1.625,3.478,3.037,3.037,0,0,1-2.4,1.184H88.5q-1.957,0-3.951-.074h-4.21a28.214,28.214,0,0,1-3.729-.223,4.9,4.9,0,0,1-2.7-1.152,11.715,11.715,0,0,1-1.883-2.192,17.885,17.885,0,0,1-1.293-2.192,4.354,4.354,0,0,1-.443-1.9l.148-1.189,1.954-8.769a3.544,3.544,0,0,1-1.632-.552,1.678,1.678,0,0,1-.544-1.434,19.933,19.933,0,0,1,1.957-8.126,3.2,3.2,0,0,1,3.137-1.655h.665L78.025,110l-1.85-.148a2.238,2.238,0,0,1-1.332-.37,1.355,1.355,0,0,1-.518-1.184,22.526,22.526,0,0,1,1.147-4.958,18.835,18.835,0,0,1,1.665-4.4,2.347,2.347,0,0,1,1.184-.814,8.465,8.465,0,0,1,1.331-.259l7.249-.148,12.055.444,3.7.148a9.138,9.138,0,0,1,3,.37q1,.37,1,1.924a15.415,15.415,0,0,1-.629,4,23.347,23.347,0,0,1-1.332,3.774,3.834,3.834,0,0,1-1.443,1.85,4.719,4.719,0,0,1-2.072.37l-2.442-.074-8.066-.37L86.52,110ZM137.8,129.314a26.45,26.45,0,0,1-6.586,12.617,15.25,15.25,0,0,1-11.4,5.143,12.631,12.631,0,0,1-10.323-4.662q-3.811-4.662-3.811-12.506a43.231,43.231,0,0,1,2.22-12.839,35.156,35.156,0,0,1,5.513-11.248,23.7,23.7,0,0,1,7.252-6.327,17.655,17.655,0,0,1,8.547-2.146q6.068,0,9.657,3.441a11.534,11.534,0,0,1,3.589,8.695,7.343,7.343,0,0,1-.259,2.109,3.357,3.357,0,0,1-1.295,1.628A8.345,8.345,0,0,1,137.4,114.4a28.26,28.26,0,0,1-4.551.407,7.77,7.77,0,0,1-2.331-.3,1.311,1.311,0,0,1-.925-1.406l.074-1.332a4.706,4.706,0,0,0-.444-2.183,1.738,1.738,0,0,0-1.7-.851,4.362,4.362,0,0,0-3.219,1.517,20.338,20.338,0,0,0-2.923,4.218,32.342,32.342,0,0,0-2.627,6.845,28.523,28.523,0,0,0-1.147,7.548,14.594,14.594,0,0,0,.555,4.255,2.315,2.315,0,0,0,2.405,1.813A3.085,3.085,0,0,0,123,133.68a9.725,9.725,0,0,0,1.628-2.886h-.666l-.962.074-.74.074q-1.11,0-1.11-1.332a26.594,26.594,0,0,1,.592-5.106q.592-2.96,1.813-3.811t5.846-1.406a63.809,63.809,0,0,1,6.919-.555,19.1,19.1,0,0,1,4.181.37,1.9,1.9,0,0,1,1.591,2.072,17.476,17.476,0,0,1-.666,4.07,7.708,7.708,0,0,1-1.3,3.182,3.191,3.191,0,0,1-.962.7A6.855,6.855,0,0,1,137.8,129.314Zm32.412.444,8.436,14.4a4.249,4.249,0,0,1,.518,1.856q0,1.708-3.424,3.75t-5.265,2.042q-1.252,0-2.651-2.451-1.326-2.748-1.62-3.269l-7.217-13.446-2.984,11.485a8.9,8.9,0,0,1-.774,2.1q-.405.7-2.321.7a23.182,23.182,0,0,1-5.749-.774q-3.022-.774-3.022-2.617a66.375,66.375,0,0,1,2.062-8.662q2.062-7.557,3.314-11.832l3.462-12.312a19.636,19.636,0,0,1-2.513.883,8.347,8.347,0,0,1-2.144.294,1.226,1.226,0,0,1-1.145-.554,2.775,2.775,0,0,1-.332-1.441,31.745,31.745,0,0,1,1.183-5.136q.961-3.214,1.627-3.769a3.978,3.978,0,0,1,1.405-.776q.739-.221,2.589-.7t5.511-1.072A43.06,43.06,0,0,1,166,97.864a18.443,18.443,0,0,1,11.835,3.876,12.8,12.8,0,0,1,4.882,10.595,15.835,15.835,0,0,1-3.33,10.262A28.2,28.2,0,0,1,170.214,129.758Zm-13.986-19.691.888.147,2.146.442a11.577,11.577,0,0,1,3.4.993,2.311,2.311,0,0,1,1.184,2.244,12.887,12.887,0,0,1-.721,3.678q-.722,2.28-.939,2.941l-.216.589a9.514,9.514,0,0,0,5.851-2.1,6.237,6.237,0,0,0,2.76-5.112,4.121,4.121,0,0,0-2.072-3.714,8.652,8.652,0,0,0-4.662-1.287,22.23,22.23,0,0,0-3.7.221Q158.966,109.332,156.228,110.067ZM198.7,110l1.554.74,2.368,1.184a1.463,1.463,0,0,1,.74,1.332,5.976,5.976,0,0,1-.22,1.7q-.22.74-.924,2.442l.675.074q2.552,0,6.041.074a27.066,27.066,0,0,1,5.064.444q1.575.37,1.427,1.628a13.321,13.321,0,0,1-.62,3.885,27.023,27.023,0,0,1-1.35,3.589,8.158,8.158,0,0,1-1.24,2.072,1.857,1.857,0,0,1-1.386.518l-2.116-.148-9.776-.3-1.716,6.289,5.18.149h5.624a5.7,5.7,0,0,1,1.665.259,1.607,1.607,0,0,1,1.11.888,3.981,3.981,0,0,1,.259,1.517,15.253,15.253,0,0,1-.628,3.922,9.156,9.156,0,0,1-1.625,3.478,3.037,3.037,0,0,1-2.4,1.184h-3.877q-1.957,0-3.951-.074h-4.21a28.214,28.214,0,0,1-3.729-.223,4.9,4.9,0,0,1-2.7-1.152,11.715,11.715,0,0,1-1.883-2.192,17.885,17.885,0,0,1-1.293-2.192,4.354,4.354,0,0,1-.443-1.9l.148-1.189,1.954-8.769a3.544,3.544,0,0,1-1.632-.552,1.678,1.678,0,0,1-.544-1.434,19.933,19.933,0,0,1,1.957-8.126,3.2,3.2,0,0,1,3.137-1.655h.665L192.059,110l-1.85-.148a2.238,2.238,0,0,1-1.332-.37,1.355,1.355,0,0,1-.518-1.184,22.526,22.526,0,0,1,1.147-4.958,18.835,18.835,0,0,1,1.665-4.4,2.347,2.347,0,0,1,1.184-.814,8.465,8.465,0,0,1,1.331-.259l7.249-.148,12.055.444,3.7.148a9.138,9.138,0,0,1,3,.37q1,.37,1,1.924a15.415,15.415,0,0,1-.629,4,23.346,23.346,0,0,1-1.332,3.774,3.834,3.834,0,0,1-1.443,1.85,4.719,4.719,0,0,1-2.072.37l-2.442-.074-8.066-.37L200.554,110Zm41.44-.592a8.636,8.636,0,0,0-2.849.815,2.075,2.075,0,0,0-1.147,2q2.886,5.412,5.18,10.121a20.57,20.57,0,0,1,2.294,9.008q0,7.785-5,11.789t-12.839,4a56.913,56.913,0,0,1-5.994-.259,5.882,5.882,0,0,1-3.552-1.407,4.085,4.085,0,0,1-1.184-3.074,28.918,28.918,0,0,1,.777-5.629,25.077,25.077,0,0,1,1.406-4.925,2.872,2.872,0,0,1,1.739-1.629,8.739,8.739,0,0,1,2.516-.334q1.184,0,2.442.037a6.706,6.706,0,0,1,2.072.334q.814.3.925.668a4.162,4.162,0,0,1,.111,1.113l-.3,2.672.592.148a5.687,5.687,0,0,0,2.775-.63,2.217,2.217,0,0,0,1.147-2.114q0-2.818-4.07-9.269t-4.07-10.306a11.7,11.7,0,0,1,2.627-7.267,19.459,19.459,0,0,1,7.215-5.6,23.782,23.782,0,0,1,10.36-2.187,41.136,41.136,0,0,1,4.736.222,5.463,5.463,0,0,1,2.775.963,3.009,3.009,0,0,1,1.11,1.407,6.17,6.17,0,0,1,.185,1.629,22.937,22.937,0,0,1-.481,4.479,13.755,13.755,0,0,1-1.3,3.887,3.277,3.277,0,0,1-2.22,1.777,18.622,18.622,0,0,1-3.7.3q-1.11,0-1.85-.037a10.012,10.012,0,0,1-1.48-.186q-1.036,0-1.036-1.409ZM43.738,216.012,40.455,224a17.851,17.851,0,0,1-1.443,2.615,2.321,2.321,0,0,1-2.035,1.017,11.806,11.806,0,0,1-3.145-.513,16.47,16.47,0,0,1-2.96-1.1,5.293,5.293,0,0,1-1.739-1.319,2.936,2.936,0,0,1-.592-1.9,2.554,2.554,0,0,1,.222-.916q.222-.549.37-.918l2.072-4.727a1.648,1.648,0,0,1-1.554-1.838,15.686,15.686,0,0,1,.555-4.3,19.455,19.455,0,0,1,1.48-3.714,4.1,4.1,0,0,1,1.85-2.1,8.13,8.13,0,0,1,2.627-.331h.962l.444-.894L48.225,182.5a17.411,17.411,0,0,1,1.628-2.557,3.609,3.609,0,0,1,3.034-1.149,14.857,14.857,0,0,1,2.294.185q1.184.185,3.922.852t3.293,2.149a11.716,11.716,0,0,1,.555,4l.222,20.9-.592,16.23q0,2.965-1.258,3.891a7.64,7.64,0,0,1-4.366.926,10.6,10.6,0,0,1-4.44-.741q-1.554-.741-1.554-3.261l.106-2.071.853-10.5a22.426,22.426,0,0,1-1.964,3.552,2.944,2.944,0,0,1-2.537,1.11Zm8.813-11.988.444-4.46.814-7.435-2.962,7.136-2.152,4.684ZM94.922,190.7q-1.626.666-2.7,1.073a5.106,5.106,0,0,1-1.516.407q-1.035,0-.887-1.184a6.877,6.877,0,0,1,.259-1.665q.259-1,.555-1.887l1.036-3.7a18.169,18.169,0,0,1,.739-2.294,3.846,3.846,0,0,1,2.108-1.665,19.428,19.428,0,0,1,4.624-1.258,32.554,32.554,0,0,1,5.327-.481q10.653,0,16.164,5.476t5.512,14.726q0,11.174-8.618,20.35t-20.085,9.176a4.943,4.943,0,0,1-3.366-.962q-1.072-.962-2.7-2.738a32.182,32.182,0,0,1-2.515-3.034,5,5,0,0,1-.888-2.96A23.347,23.347,0,0,1,88.9,212.5q.924-3.515,1.516-5.587Zm4.289-1.258a18.1,18.1,0,0,1,5.476,1.591q1.85,1,1.85,2.331a8.26,8.26,0,0,1-.3,2.035q-.3,1.147-.444,1.739l-4.514,17.464q3.871-.444,8.078-4.551t4.206-11.8a8.281,8.281,0,0,0-3.029-6.771A12.473,12.473,0,0,0,102.393,189a8.694,8.694,0,0,0-1.554.148Zm36.252,37.962a16.442,16.442,0,0,1-5.671-1.073q-2.928-1.073-2.928-3.293a31.8,31.8,0,0,1,1.109-5.772q1.109-4.44,2.292-8.658,1.035-4.514,2.957-10.693t2.957-9.509l2.144-6.734a4.405,4.405,0,0,1,1.447-2.4,5.1,5.1,0,0,1,2.709-.555,24.863,24.863,0,0,1,4.083.333,10.226,10.226,0,0,1,3.375,1.11,2.518,2.518,0,0,1,1.371,2.331,8.055,8.055,0,0,1-.481,2.294q-.481,1.48-.851,2.738l-6.512,23.68-3.33,13.024q-.519,2.22-1.334,2.7A7.539,7.539,0,0,1,135.463,227.408Zm40.264-43.216,1.036-.888,2.294-2q1.924-1.7,2.7-2.257a3.161,3.161,0,0,1,1.887-.555q2.812,0,4,5.262a43.9,43.9,0,0,1,1.184,9.56,46.129,46.129,0,0,1-1.147,10.041,62.586,62.586,0,0,1-3.515,10.746,27.688,27.688,0,0,1-7.437,10.042,16.792,16.792,0,0,1-11.359,4.446q-4.958,0-9.546-4.625t-4.588-14.245a37.128,37.128,0,0,1,7.067-21.46q7.067-10.212,15.725-10.212a3.758,3.758,0,0,1,1.739.333,1.4,1.4,0,0,1,.629,1.369,13.459,13.459,0,0,1-.259,2.368Q175.875,183.526,175.727,184.192Zm-.666,3.256a8.207,8.207,0,0,0-.407,1.295,3.833,3.833,0,0,1-.592,1.406,19.5,19.5,0,0,1-2.849,2.035q-2.516,1.628-4.958,6.993a25.029,25.029,0,0,0-2.442,10.4,9.979,9.979,0,0,0,.814,3.922,2.715,2.715,0,0,0,2.59,1.924,3.655,3.655,0,0,0,2.812-1.48A18.085,18.085,0,0,0,172.4,210.2a38.26,38.26,0,0,0,2.294-6.771,34.372,34.372,0,0,0,1.184-8.732q0-2-.148-3.737A17.985,17.985,0,0,0,175.061,187.448Zm36.926,2.96a8.636,8.636,0,0,0-2.849.815,2.075,2.075,0,0,0-1.147,2q2.886,5.412,5.18,10.121a20.57,20.57,0,0,1,2.294,9.008q0,7.785-5,11.789t-12.839,4a56.913,56.913,0,0,1-5.994-.259,5.882,5.882,0,0,1-3.552-1.407,4.085,4.085,0,0,1-1.184-3.074,28.918,28.918,0,0,1,.777-5.629,25.077,25.077,0,0,1,1.406-4.925,2.872,2.872,0,0,1,1.739-1.629,8.739,8.739,0,0,1,2.516-.334q1.184,0,2.442.037a6.706,6.706,0,0,1,2.072.334q.814.3.925.668a4.162,4.162,0,0,1,.111,1.113l-.3,2.672.592.148a5.687,5.687,0,0,0,2.775-.63,2.217,2.217,0,0,0,1.147-2.114q0-2.818-4.07-9.269t-4.07-10.306a11.7,11.7,0,0,1,2.627-7.267,19.459,19.459,0,0,1,7.215-5.6,23.782,23.782,0,0,1,10.36-2.187,41.137,41.137,0,0,1,4.736.222,5.463,5.463,0,0,1,2.775.963,3.009,3.009,0,0,1,1.11,1.407,6.17,6.17,0,0,1,.185,1.629,22.937,22.937,0,0,1-.481,4.479,13.755,13.755,0,0,1-1.3,3.887,3.277,3.277,0,0,1-2.22,1.777,18.622,18.622,0,0,1-3.7.3q-1.11,0-1.85-.037a10.012,10.012,0,0,1-1.48-.186q-1.036,0-1.036-1.409Z" transform="translate(91.742 127)" fill="#4d565c"/>
    <path id="Path_2" data-name="Path 2" d="M48.225,26.558q0,4.144-1.813,6.253T40.529,34.92a8.76,8.76,0,0,1-3.034-.444,1.834,1.834,0,0,1-1.184-1.924,9.784,9.784,0,0,1,.333-1.591,13.816,13.816,0,0,0,.333-1.443,1.569,1.569,0,0,0-.37-1.036,1.274,1.274,0,0,0-1.036-.444q-2.96,0-5.883,8.066T26.765,48.758a9.568,9.568,0,0,0,.37,2.775,1.517,1.517,0,0,0,1.554,1.221,2.156,2.156,0,0,0,1.591-.629,7.661,7.661,0,0,0,1.332-2.183q.7-1.554,1.147-2.331a4.671,4.671,0,0,1,1.887-1.554,8.611,8.611,0,0,1,4.033-.777,9.514,9.514,0,0,1,3.293.555,2.04,2.04,0,0,1,1.517,2.035q0,6.808-5.439,12.617T25.729,66.3A9.161,9.161,0,0,1,17.4,61.6a20.075,20.075,0,0,1-2.849-10.619,47.29,47.29,0,0,1,6.253-23.643q6.253-11.063,17.945-11.063a8.807,8.807,0,0,1,7.03,2.812A11,11,0,0,1,48.225,26.558ZM60.684,54.012,57.4,62a17.851,17.851,0,0,1-1.443,2.615,2.321,2.321,0,0,1-2.035,1.017,11.806,11.806,0,0,1-3.145-.513,16.469,16.469,0,0,1-2.96-1.1A5.293,5.293,0,0,1,46.079,62.7a2.936,2.936,0,0,1-.592-1.9,2.554,2.554,0,0,1,.222-.916q.222-.549.37-.918l2.072-4.727A1.648,1.648,0,0,1,46.6,52.4a15.686,15.686,0,0,1,.555-4.3,19.454,19.454,0,0,1,1.48-3.714,4.1,4.1,0,0,1,1.85-2.1,8.13,8.13,0,0,1,2.627-.331h.962l.444-.894L65.171,20.5A17.41,17.41,0,0,1,66.8,17.939a3.609,3.609,0,0,1,3.034-1.149,14.857,14.857,0,0,1,2.294.185q1.184.185,3.922.852t3.293,2.149a11.715,11.715,0,0,1,.555,4l.222,20.9-.592,16.23q0,2.965-1.258,3.891a7.64,7.64,0,0,1-4.366.926,10.6,10.6,0,0,1-4.44-.741q-1.554-.741-1.554-3.261l.106-2.071.853-10.5A22.426,22.426,0,0,1,66.9,52.9a2.944,2.944,0,0,1-2.537,1.11ZM69.5,42.024l.444-4.46.814-7.435-2.962,7.136L65.64,41.95Zm30.644-6.438-.149,1.5a66.78,66.78,0,0,1-1.155,7.473q-.783,3.662-2.2,9.267L95,60.7a28.542,28.542,0,0,1-1.141,3.662Q93.3,65.7,90.287,65.7a16.433,16.433,0,0,1-5.078-.888q-2.722-.888-2.722-2.738a33.556,33.556,0,0,1,.74-3.441q.74-3.071,1.184-4.625l6.364-24.346,2.812-9.324a8.5,8.5,0,0,1,1.11-2.59,2.2,2.2,0,0,1,1.924-.962A17.979,17.979,0,0,1,102.578,18a9.015,9.015,0,0,1,4.921,3.8,28.372,28.372,0,0,1,2.738,8.407,53.327,53.327,0,0,1,1.184,10.562q.592-4.546,1.369-8.542t1.7-7.625q.925-3.629,1.258-4.949a5.974,5.974,0,0,1,.777-1.943,1.832,1.832,0,0,1,1-.77,4.465,4.465,0,0,1,1.147-.147A12.815,12.815,0,0,1,124,17.828a11.784,11.784,0,0,1,2.812,1.556,2.23,2.23,0,0,1,.518,1.631,10.123,10.123,0,0,1-.3,2.186q-.3,1.3-.518,2.409l-5.624,22.53-2.072,6.966q-.666,2.075-1.184,3.891a14.52,14.52,0,0,0-.518,2.112,7.484,7.484,0,0,0,.111,1.075q.111.7.259,1.3a1.546,1.546,0,0,1-1.186,1.668,11.481,11.481,0,0,1-3.038.334,12.638,12.638,0,0,1-6.3-1.233,5.327,5.327,0,0,1-2.521-2.541,19.663,19.663,0,0,1-.741-3.1l-2.3-13.752ZM144.869,28.7l2.22.74a28.616,28.616,0,0,1,3.071,1.48,1.7,1.7,0,0,1,.851,1.554,10.234,10.234,0,0,1-.37,2.59q-.592,1.776-.814,2.59l-2.516,9.028-3.922,14.8a10.556,10.556,0,0,1-1.144,3.182,2.568,2.568,0,0,1-2.325.962,28.5,28.5,0,0,1-5.979-.665q-3.1-.665-3.1-2.437a12.515,12.515,0,0,1,.591-3.1q.591-2.068.813-2.806l7.985-26.957.3-.886L139.27,28.7H134.02a24.468,24.468,0,0,1-2.662-.112,2.266,2.266,0,0,1-1.368-.521,2.135,2.135,0,0,1-.554-1.043,5.105,5.105,0,0,1-.148-1.153,16.317,16.317,0,0,1,.7-3.984,12.8,12.8,0,0,1,1.368-3.538,2.612,2.612,0,0,1,1.367-1.155,6.894,6.894,0,0,1,1.738-.186l2.809.074,7.836.3,9.463.37,4.583.222a3.6,3.6,0,0,1,2.033.444,2.161,2.161,0,0,1,.628,1.85,9.9,9.9,0,0,1-.518,3.071q-.518,1.591-.925,2.849a7.314,7.314,0,0,1-1.036,2.109,2.2,2.2,0,0,1-1.887.851l-1.776-.074-6.29-.37h-4.514Zm26,25.308L167.587,62a17.85,17.85,0,0,1-1.443,2.615,2.321,2.321,0,0,1-2.035,1.017,11.806,11.806,0,0,1-3.145-.513,16.469,16.469,0,0,1-2.96-1.1,5.293,5.293,0,0,1-1.739-1.319,2.936,2.936,0,0,1-.592-1.9,2.555,2.555,0,0,1,.222-.916q.222-.549.37-.918l2.072-4.727a1.648,1.648,0,0,1-1.554-1.838,15.686,15.686,0,0,1,.555-4.3,19.454,19.454,0,0,1,1.48-3.714,4.1,4.1,0,0,1,1.85-2.1,8.13,8.13,0,0,1,2.627-.331h.962l.444-.894L175.357,20.5a17.411,17.411,0,0,1,1.628-2.557,3.609,3.609,0,0,1,3.034-1.149,14.857,14.857,0,0,1,2.294.185q1.184.185,3.922.852t3.293,2.149a11.716,11.716,0,0,1,.555,4l.222,20.9-.592,16.23q0,2.965-1.258,3.891a7.64,7.64,0,0,1-4.366.926,10.6,10.6,0,0,1-4.44-.741q-1.554-.741-1.554-3.261l.106-2.071.853-10.5A22.426,22.426,0,0,1,177.09,52.9a2.944,2.944,0,0,1-2.537,1.11Zm8.813-11.988.444-4.46.814-7.435-2.962,7.136-2.152,4.684ZM203.258,28.7q-1.626.666-2.7,1.073a5.106,5.106,0,0,1-1.516.407q-1.035,0-.887-1.184a6.877,6.877,0,0,1,.259-1.665q.259-1,.555-1.887l1.036-3.7a18.169,18.169,0,0,1,.739-2.294,3.846,3.846,0,0,1,2.108-1.665,19.428,19.428,0,0,1,4.624-1.258,32.554,32.554,0,0,1,5.327-.481q10.653,0,16.164,5.476t5.512,14.726q0,11.174-8.618,20.35T205.78,65.778a4.943,4.943,0,0,1-3.366-.962q-1.072-.962-2.7-2.738a32.181,32.181,0,0,1-2.515-3.034,5,5,0,0,1-.888-2.96,23.347,23.347,0,0,1,.924-5.587q.924-3.515,1.516-5.587Zm4.289-1.258a18.1,18.1,0,0,1,5.476,1.591q1.85,1,1.85,2.331a8.259,8.259,0,0,1-.3,2.035q-.3,1.147-.444,1.739l-4.514,17.464q3.871-.444,8.078-4.551t4.206-11.8a8.281,8.281,0,0,0-3.029-6.771A12.473,12.473,0,0,0,210.729,27a8.694,8.694,0,0,0-1.554.148ZM15.581,135.012,12.3,143a17.852,17.852,0,0,1-1.443,2.615A2.321,2.321,0,0,1,8.82,146.63a11.806,11.806,0,0,1-3.145-.513,16.47,16.47,0,0,1-2.96-1.1A5.293,5.293,0,0,1,.976,143.7a2.936,2.936,0,0,1-.592-1.9,2.554,2.554,0,0,1,.222-.916q.222-.549.37-.918l2.072-4.727A1.648,1.648,0,0,1,1.494,133.4a15.686,15.686,0,0,1,.555-4.3,19.454,19.454,0,0,1,1.48-3.714,4.1,4.1,0,0,1,1.85-2.1,8.13,8.13,0,0,1,2.627-.331h.962l.444-.894L20.068,101.5A17.411,17.411,0,0,1,21.7,98.939,3.609,3.609,0,0,1,24.73,97.79a14.857,14.857,0,0,1,2.294.185q1.184.185,3.922.852t3.293,2.149a11.716,11.716,0,0,1,.555,4l.222,20.9-.592,16.23q0,2.965-1.258,3.891a7.64,7.64,0,0,1-4.366.926,10.6,10.6,0,0,1-4.44-.741q-1.554-.741-1.554-3.261l.106-2.071.853-10.5A22.426,22.426,0,0,1,21.8,133.9a2.944,2.944,0,0,1-2.537,1.11Zm8.813-11.988.444-4.46.814-7.435-2.962,7.136-2.152,4.684Zm28.16,11.322,7.252.074H64.32a4.533,4.533,0,0,1,1.591.218.966.966,0,0,1,.555,1.018,19.946,19.946,0,0,1-.926,4.8,19.853,19.853,0,0,1-1.666,4.471,3.3,3.3,0,0,1-1.777,1.527,8.735,8.735,0,0,1-2.592.327H49.138a9.831,9.831,0,0,1-3.332-.445,6.4,6.4,0,0,1-2.592-2.487q-1.407-2.041-2.518-3.9a6.585,6.585,0,0,1-1.111-3.265,15.013,15.013,0,0,1,.519-3.378q.519-2.115.741-3.154L46.1,111.224l2.74-9.278A14.559,14.559,0,0,1,50.1,98.421q.518-.779,2.666-.779a18.247,18.247,0,0,1,4.147.52,14.075,14.075,0,0,1,3.443,1.189,1.922,1.922,0,0,1,1.222,1.635,11.774,11.774,0,0,1-.666,3.157q-.666,2.118-.888,2.935L54.4,127.064ZM84.67,110l1.554.74,2.368,1.184a1.463,1.463,0,0,1,.74,1.332,5.976,5.976,0,0,1-.22,1.7q-.22.74-.924,2.442l.675.074q2.552,0,6.041.074a27.066,27.066,0,0,1,5.064.444q1.575.37,1.427,1.628a13.322,13.322,0,0,1-.62,3.885,27.023,27.023,0,0,1-1.35,3.589,8.157,8.157,0,0,1-1.24,2.072,1.857,1.857,0,0,1-1.386.518l-2.116-.148-9.776-.3-1.716,6.289,5.18.149h5.624a5.7,5.7,0,0,1,1.665.259,1.607,1.607,0,0,1,1.11.888,3.981,3.981,0,0,1,.259,1.517,15.253,15.253,0,0,1-.628,3.922,9.156,9.156,0,0,1-1.625,3.478,3.037,3.037,0,0,1-2.4,1.184H88.5q-1.957,0-3.951-.074h-4.21a28.214,28.214,0,0,1-3.729-.223,4.9,4.9,0,0,1-2.7-1.152,11.715,11.715,0,0,1-1.883-2.192,17.885,17.885,0,0,1-1.293-2.192,4.354,4.354,0,0,1-.443-1.9l.148-1.189,1.954-8.769a3.544,3.544,0,0,1-1.632-.552,1.678,1.678,0,0,1-.544-1.434,19.933,19.933,0,0,1,1.957-8.126,3.2,3.2,0,0,1,3.137-1.655h.665L78.025,110l-1.85-.148a2.238,2.238,0,0,1-1.332-.37,1.355,1.355,0,0,1-.518-1.184,22.526,22.526,0,0,1,1.147-4.958,18.835,18.835,0,0,1,1.665-4.4,2.347,2.347,0,0,1,1.184-.814,8.465,8.465,0,0,1,1.331-.259l7.249-.148,12.055.444,3.7.148a9.138,9.138,0,0,1,3,.37q1,.37,1,1.924a15.415,15.415,0,0,1-.629,4,23.347,23.347,0,0,1-1.332,3.774,3.834,3.834,0,0,1-1.443,1.85,4.719,4.719,0,0,1-2.072.37l-2.442-.074-8.066-.37L86.52,110ZM137.8,129.314a26.45,26.45,0,0,1-6.586,12.617,15.25,15.25,0,0,1-11.4,5.143,12.631,12.631,0,0,1-10.323-4.662q-3.811-4.662-3.811-12.506a43.231,43.231,0,0,1,2.22-12.839,35.156,35.156,0,0,1,5.513-11.248,23.7,23.7,0,0,1,7.252-6.327,17.655,17.655,0,0,1,8.547-2.146q6.068,0,9.657,3.441a11.534,11.534,0,0,1,3.589,8.695,7.343,7.343,0,0,1-.259,2.109,3.357,3.357,0,0,1-1.295,1.628A8.345,8.345,0,0,1,137.4,114.4a28.26,28.26,0,0,1-4.551.407,7.77,7.77,0,0,1-2.331-.3,1.311,1.311,0,0,1-.925-1.406l.074-1.332a4.706,4.706,0,0,0-.444-2.183,1.738,1.738,0,0,0-1.7-.851,4.362,4.362,0,0,0-3.219,1.517,20.338,20.338,0,0,0-2.923,4.218,32.342,32.342,0,0,0-2.627,6.845,28.523,28.523,0,0,0-1.147,7.548,14.594,14.594,0,0,0,.555,4.255,2.315,2.315,0,0,0,2.405,1.813A3.085,3.085,0,0,0,123,133.68a9.725,9.725,0,0,0,1.628-2.886h-.666l-.962.074-.74.074q-1.11,0-1.11-1.332a26.594,26.594,0,0,1,.592-5.106q.592-2.96,1.813-3.811t5.846-1.406a63.809,63.809,0,0,1,6.919-.555,19.1,19.1,0,0,1,4.181.37,1.9,1.9,0,0,1,1.591,2.072,17.476,17.476,0,0,1-.666,4.07,7.708,7.708,0,0,1-1.3,3.182,3.191,3.191,0,0,1-.962.7A6.855,6.855,0,0,1,137.8,129.314Zm32.412.444,8.436,14.4a4.249,4.249,0,0,1,.518,1.856q0,1.708-3.424,3.75t-5.265,2.042q-1.252,0-2.651-2.451-1.326-2.748-1.62-3.269l-7.217-13.446-2.984,11.485a8.9,8.9,0,0,1-.774,2.1q-.405.7-2.321.7a23.182,23.182,0,0,1-5.749-.774q-3.022-.774-3.022-2.617a66.375,66.375,0,0,1,2.062-8.662q2.062-7.557,3.314-11.832l3.462-12.312a19.636,19.636,0,0,1-2.513.883,8.347,8.347,0,0,1-2.144.294,1.226,1.226,0,0,1-1.145-.554,2.775,2.775,0,0,1-.332-1.441,31.745,31.745,0,0,1,1.183-5.136q.961-3.214,1.627-3.769a3.978,3.978,0,0,1,1.405-.776q.739-.221,2.589-.7t5.511-1.072A43.06,43.06,0,0,1,166,97.864a18.443,18.443,0,0,1,11.835,3.876,12.8,12.8,0,0,1,4.882,10.595,15.835,15.835,0,0,1-3.33,10.262A28.2,28.2,0,0,1,170.214,129.758Zm-13.986-19.691.888.147,2.146.442a11.577,11.577,0,0,1,3.4.993,2.311,2.311,0,0,1,1.184,2.244,12.887,12.887,0,0,1-.721,3.678q-.722,2.28-.939,2.941l-.216.589a9.514,9.514,0,0,0,5.851-2.1,6.237,6.237,0,0,0,2.76-5.112,4.121,4.121,0,0,0-2.072-3.714,8.652,8.652,0,0,0-4.662-1.287,22.23,22.23,0,0,0-3.7.221Q158.966,109.332,156.228,110.067ZM198.7,110l1.554.74,2.368,1.184a1.463,1.463,0,0,1,.74,1.332,5.976,5.976,0,0,1-.22,1.7q-.22.74-.924,2.442l.675.074q2.552,0,6.041.074a27.066,27.066,0,0,1,5.064.444q1.575.37,1.427,1.628a13.321,13.321,0,0,1-.62,3.885,27.023,27.023,0,0,1-1.35,3.589,8.158,8.158,0,0,1-1.24,2.072,1.857,1.857,0,0,1-1.386.518l-2.116-.148-9.776-.3-1.716,6.289,5.18.149h5.624a5.7,5.7,0,0,1,1.665.259,1.607,1.607,0,0,1,1.11.888,3.981,3.981,0,0,1,.259,1.517,15.253,15.253,0,0,1-.628,3.922,9.156,9.156,0,0,1-1.625,3.478,3.037,3.037,0,0,1-2.4,1.184h-3.877q-1.957,0-3.951-.074h-4.21a28.214,28.214,0,0,1-3.729-.223,4.9,4.9,0,0,1-2.7-1.152,11.715,11.715,0,0,1-1.883-2.192,17.885,17.885,0,0,1-1.293-2.192,4.354,4.354,0,0,1-.443-1.9l.148-1.189,1.954-8.769a3.544,3.544,0,0,1-1.632-.552,1.678,1.678,0,0,1-.544-1.434,19.933,19.933,0,0,1,1.957-8.126,3.2,3.2,0,0,1,3.137-1.655h.665L192.059,110l-1.85-.148a2.238,2.238,0,0,1-1.332-.37,1.355,1.355,0,0,1-.518-1.184,22.526,22.526,0,0,1,1.147-4.958,18.835,18.835,0,0,1,1.665-4.4,2.347,2.347,0,0,1,1.184-.814,8.465,8.465,0,0,1,1.331-.259l7.249-.148,12.055.444,3.7.148a9.138,9.138,0,0,1,3,.37q1,.37,1,1.924a15.415,15.415,0,0,1-.629,4,23.346,23.346,0,0,1-1.332,3.774,3.834,3.834,0,0,1-1.443,1.85,4.719,4.719,0,0,1-2.072.37l-2.442-.074-8.066-.37L200.554,110Zm41.44-.592a8.636,8.636,0,0,0-2.849.815,2.075,2.075,0,0,0-1.147,2q2.886,5.412,5.18,10.121a20.57,20.57,0,0,1,2.294,9.008q0,7.785-5,11.789t-12.839,4a56.913,56.913,0,0,1-5.994-.259,5.882,5.882,0,0,1-3.552-1.407,4.085,4.085,0,0,1-1.184-3.074,28.918,28.918,0,0,1,.777-5.629,25.077,25.077,0,0,1,1.406-4.925,2.872,2.872,0,0,1,1.739-1.629,8.739,8.739,0,0,1,2.516-.334q1.184,0,2.442.037a6.706,6.706,0,0,1,2.072.334q.814.3.925.668a4.162,4.162,0,0,1,.111,1.113l-.3,2.672.592.148a5.687,5.687,0,0,0,2.775-.63,2.217,2.217,0,0,0,1.147-2.114q0-2.818-4.07-9.269t-4.07-10.306a11.7,11.7,0,0,1,2.627-7.267,19.459,19.459,0,0,1,7.215-5.6,23.782,23.782,0,0,1,10.36-2.187,41.136,41.136,0,0,1,4.736.222,5.463,5.463,0,0,1,2.775.963,3.009,3.009,0,0,1,1.11,1.407,6.17,6.17,0,0,1,.185,1.629,22.937,22.937,0,0,1-.481,4.479,13.755,13.755,0,0,1-1.3,3.887,3.277,3.277,0,0,1-2.22,1.777,18.622,18.622,0,0,1-3.7.3q-1.11,0-1.85-.037a10.012,10.012,0,0,1-1.48-.186q-1.036,0-1.036-1.409ZM43.738,216.012,40.455,224a17.851,17.851,0,0,1-1.443,2.615,2.321,2.321,0,0,1-2.035,1.017,11.806,11.806,0,0,1-3.145-.513,16.47,16.47,0,0,1-2.96-1.1,5.293,5.293,0,0,1-1.739-1.319,2.936,2.936,0,0,1-.592-1.9,2.554,2.554,0,0,1,.222-.916q.222-.549.37-.918l2.072-4.727a1.648,1.648,0,0,1-1.554-1.838,15.686,15.686,0,0,1,.555-4.3,19.455,19.455,0,0,1,1.48-3.714,4.1,4.1,0,0,1,1.85-2.1,8.13,8.13,0,0,1,2.627-.331h.962l.444-.894L48.225,182.5a17.411,17.411,0,0,1,1.628-2.557,3.609,3.609,0,0,1,3.034-1.149,14.857,14.857,0,0,1,2.294.185q1.184.185,3.922.852t3.293,2.149a11.716,11.716,0,0,1,.555,4l.222,20.9-.592,16.23q0,2.965-1.258,3.891a7.64,7.64,0,0,1-4.366.926,10.6,10.6,0,0,1-4.44-.741q-1.554-.741-1.554-3.261l.106-2.071.853-10.5a22.426,22.426,0,0,1-1.964,3.552,2.944,2.944,0,0,1-2.537,1.11Zm8.813-11.988.444-4.46.814-7.435-2.962,7.136-2.152,4.684ZM94.922,190.7q-1.626.666-2.7,1.073a5.106,5.106,0,0,1-1.516.407q-1.035,0-.887-1.184a6.877,6.877,0,0,1,.259-1.665q.259-1,.555-1.887l1.036-3.7a18.169,18.169,0,0,1,.739-2.294,3.846,3.846,0,0,1,2.108-1.665,19.428,19.428,0,0,1,4.624-1.258,32.554,32.554,0,0,1,5.327-.481q10.653,0,16.164,5.476t5.512,14.726q0,11.174-8.618,20.35t-20.085,9.176a4.943,4.943,0,0,1-3.366-.962q-1.072-.962-2.7-2.738a32.182,32.182,0,0,1-2.515-3.034,5,5,0,0,1-.888-2.96A23.347,23.347,0,0,1,88.9,212.5q.924-3.515,1.516-5.587Zm4.289-1.258a18.1,18.1,0,0,1,5.476,1.591q1.85,1,1.85,2.331a8.26,8.26,0,0,1-.3,2.035q-.3,1.147-.444,1.739l-4.514,17.464q3.871-.444,8.078-4.551t4.206-11.8a8.281,8.281,0,0,0-3.029-6.771A12.473,12.473,0,0,0,102.393,189a8.694,8.694,0,0,0-1.554.148Zm36.252,37.962a16.442,16.442,0,0,1-5.671-1.073q-2.928-1.073-2.928-3.293a31.8,31.8,0,0,1,1.109-5.772q1.109-4.44,2.292-8.658,1.035-4.514,2.957-10.693t2.957-9.509l2.144-6.734a4.405,4.405,0,0,1,1.447-2.4,5.1,5.1,0,0,1,2.709-.555,24.863,24.863,0,0,1,4.083.333,10.226,10.226,0,0,1,3.375,1.11,2.518,2.518,0,0,1,1.371,2.331,8.055,8.055,0,0,1-.481,2.294q-.481,1.48-.851,2.738l-6.512,23.68-3.33,13.024q-.519,2.22-1.334,2.7A7.539,7.539,0,0,1,135.463,227.408Zm40.264-43.216,1.036-.888,2.294-2q1.924-1.7,2.7-2.257a3.161,3.161,0,0,1,1.887-.555q2.812,0,4,5.262a43.9,43.9,0,0,1,1.184,9.56,46.129,46.129,0,0,1-1.147,10.041,62.586,62.586,0,0,1-3.515,10.746,27.688,27.688,0,0,1-7.437,10.042,16.792,16.792,0,0,1-11.359,4.446q-4.958,0-9.546-4.625t-4.588-14.245a37.128,37.128,0,0,1,7.067-21.46q7.067-10.212,15.725-10.212a3.758,3.758,0,0,1,1.739.333,1.4,1.4,0,0,1,.629,1.369,13.459,13.459,0,0,1-.259,2.368Q175.875,183.526,175.727,184.192Zm-.666,3.256a8.207,8.207,0,0,0-.407,1.295,3.833,3.833,0,0,1-.592,1.406,19.5,19.5,0,0,1-2.849,2.035q-2.516,1.628-4.958,6.993a25.029,25.029,0,0,0-2.442,10.4,9.979,9.979,0,0,0,.814,3.922,2.715,2.715,0,0,0,2.59,1.924,3.655,3.655,0,0,0,2.812-1.48A18.085,18.085,0,0,0,172.4,210.2a38.26,38.26,0,0,0,2.294-6.771,34.372,34.372,0,0,0,1.184-8.732q0-2-.148-3.737A17.985,17.985,0,0,0,175.061,187.448Zm36.926,2.96a8.636,8.636,0,0,0-2.849.815,2.075,2.075,0,0,0-1.147,2q2.886,5.412,5.18,10.121a20.57,20.57,0,0,1,2.294,9.008q0,7.785-5,11.789t-12.839,4a56.913,56.913,0,0,1-5.994-.259,5.882,5.882,0,0,1-3.552-1.407,4.085,4.085,0,0,1-1.184-3.074,28.918,28.918,0,0,1,.777-5.629,25.077,25.077,0,0,1,1.406-4.925,2.872,2.872,0,0,1,1.739-1.629,8.739,8.739,0,0,1,2.516-.334q1.184,0,2.442.037a6.706,6.706,0,0,1,2.072.334q.814.3.925.668a4.162,4.162,0,0,1,.111,1.113l-.3,2.672.592.148a5.687,5.687,0,0,0,2.775-.63,2.217,2.217,0,0,0,1.147-2.114q0-2.818-4.07-9.269t-4.07-10.306a11.7,11.7,0,0,1,2.627-7.267,19.459,19.459,0,0,1,7.215-5.6,23.782,23.782,0,0,1,10.36-2.187,41.137,41.137,0,0,1,4.736.222,5.463,5.463,0,0,1,2.775.963,3.009,3.009,0,0,1,1.11,1.407,6.17,6.17,0,0,1,.185,1.629,22.937,22.937,0,0,1-.481,4.479,13.755,13.755,0,0,1-1.3,3.887,3.277,3.277,0,0,1-2.22,1.777,18.622,18.622,0,0,1-3.7.3q-1.11,0-1.85-.037a10.012,10.012,0,0,1-1.48-.186q-1.036,0-1.036-1.409Z" transform="translate(93.742 129)" fill="#a1a6a9"/>
    <path id="Path_4" data-name="Path 4" d="M-71.932-6.384a4.233,4.233,0,0,1,.028.56A5.8,5.8,0,0,1-72.2-4a7.563,7.563,0,0,1-1.078,1.988A5.565,5.565,0,0,1-75.754-.224a11.517,11.517,0,0,1-4.354.7h-.84A13.226,13.226,0,0,1-82.5.378a25.367,25.367,0,0,1-2.506-.49l-.644-.168.952-5.208.5.093.308.031.924.187.336.062,1.12.187h1.9a4.489,4.489,0,0,0,.952-.324.781.781,0,0,0,.364-.774.93.93,0,0,0-.224-.661A1.875,1.875,0,0,0-79.1-7.1a9.451,9.451,0,0,0-.952-.366l-.56-.225q-.644-.282-1.078-.493a7.337,7.337,0,0,1-.742-.408l-.448-.338-.84-.732A5.931,5.931,0,0,1-85.106-11.5a5.431,5.431,0,0,1-.406-2.21A5.387,5.387,0,0,1-83.1-18.274a10.956,10.956,0,0,1,6.552-1.746,10.064,10.064,0,0,1,2.03.21,18.423,18.423,0,0,1,2.114.574l-.756,5.264q-.336-.112-.588-.182t-1.008-.224q-.756-.154-1.232-.21a7.689,7.689,0,0,0-.9-.056h-.84a2.248,2.248,0,0,0-.658.1A1.715,1.715,0,0,0-79-14.2a.755.755,0,0,0-.294.588.631.631,0,0,0,.364.588l.308.2.672.364.224.112.252.112.672.308.644.336.5.336.952.588A5.788,5.788,0,0,1-71.932-6.384ZM-55.748,0h-5.488V-1.876l-.364.392A5.575,5.575,0,0,1-65.492.252a15.221,15.221,0,0,1-2.52-.476,2.9,2.9,0,0,1-2.366-2.408,17.261,17.261,0,0,1-.378-2.52q0-2.772,1.778-3.752a6.556,6.556,0,0,1,3.01-.98,5.681,5.681,0,0,1,1.666.252,7.3,7.3,0,0,1,1.722.812l.56.364V-9.492a2.546,2.546,0,0,0-.462-1.176q-.462-.756-2.9-.756h-.672l-.42.056a16.971,16.971,0,0,0-2.044.308l-.644.168.98-3.816,1.232-.22a24.16,24.16,0,0,1,3.752-.3q3.78,0,5.614,1.526a5.28,5.28,0,0,1,1.834,4.3V0Zm-6.188-4.144a1.818,1.818,0,0,0,.224-.42,1.268,1.268,0,0,0,.084-.448,1.2,1.2,0,0,0-.084-.42A3.619,3.619,0,0,0-62.1-6.1q-.308-.448-1.344-.448a4.059,4.059,0,0,0-.7.084,1.15,1.15,0,0,0-.756.574,1.7,1.7,0,0,0-.308.882,1.758,1.758,0,0,0,.392.994,1.612,1.612,0,0,0,1.4.546,4.254,4.254,0,0,0,.686-.084A1.235,1.235,0,0,0-61.936-4.144ZM-47.516-.2-53.4.2V-20.188l5.88-.392Zm23.744,0L-29.316.2V-8.755a.974.974,0,0,0-1.1-1.1h-.261Q-31.7-9.713-31.7-8.344V-.2L-37.24.2V-8.6a1.334,1.334,0,0,0-.258-.827.893.893,0,0,0-.487-.385,2.058,2.058,0,0,0-.344-.043H-38.5q-1.118,0-1.118,1.512V-.2L-45.164.2V-14.5l5.544-.392v2.156a4.726,4.726,0,0,1,1.092-1.4,4.152,4.152,0,0,1,2.632-.952,3.557,3.557,0,0,1,.406.028l.812.1a2.756,2.756,0,0,1,1.218.518A4.229,4.229,0,0,1-32.284-13.1l.2.5.308-.476a5.538,5.538,0,0,1,1.652-1.568,4.129,4.129,0,0,1,2.016-.448,3.876,3.876,0,0,1,3.276,1.38q1.064,1.38,1.064,4.615V-.2Zm17.78-7.139a7.649,7.649,0,0,1-1.68,5A6.191,6.191,0,0,1-11.242.07a17.069,17.069,0,0,1-2.73.35,7.611,7.611,0,0,1-5.614-2.226,7.508,7.508,0,0,1-2.226-5.53q0-4.2,2.688-5.978a9.463,9.463,0,0,1,5.208-1.778A7.784,7.784,0,0,1-8.2-12.908,7.5,7.5,0,0,1-5.992-7.336Zm-5.572.56a4.234,4.234,0,0,0,.028-.56,2.708,2.708,0,0,0-.5-1.694,1.718,1.718,0,0,0-1.036-.742,5.644,5.644,0,0,0-.812-.084,4.866,4.866,0,0,0-.812.1,1.8,1.8,0,0,0-1.036.742,2.647,2.647,0,0,0-.5,1.68,2.661,2.661,0,0,0,.5,1.666,1.852,1.852,0,0,0,1.106.77,6.073,6.073,0,0,0,.742.112q.14,0,1.12-.2T-11.564-6.776ZM7.112-4.816a4.525,4.525,0,0,1,.028.588A4.043,4.043,0,0,1,5.348-.854,8.429,8.429,0,0,1,.252.476Q-.392.476-1.12.42T-3.052.168l-1.064-.2-.5-.084.644-4.564.364.112.392.084.448.084.588.056a7.432,7.432,0,0,0,1.036.084A4.722,4.722,0,0,0-.1-4.4,1.023,1.023,0,0,0,.644-4.83a1.192,1.192,0,0,0,.14-.406A.342.342,0,0,0,.7-5.488L.56-5.6.028-5.824l-.588-.2A6.626,6.626,0,0,1-3.654-7.63a3.62,3.62,0,0,1-.966-2.59,9.694,9.694,0,0,1,.084-1.064,3.331,3.331,0,0,1,.756-1.568,4.7,4.7,0,0,1,1.736-1.372,8.676,8.676,0,0,1,2.1-.7,13.808,13.808,0,0,1,2.52-.2,10.95,10.95,0,0,1,1.386.084q.658.084,1.946.364l.616.168-.672,4.368-.336-.075-.308-.074-.448-.038-.5-.037H2.576q-.9.112-.98.532v.168a.758.758,0,0,0,.056.364,1.007,1.007,0,0,0,.364.224l.2.084.644.224a9.1,9.1,0,0,1,3.22,1.582A3.515,3.515,0,0,1,7.112-4.816ZM27.132-.2,21.056.2V-12.8l-3.22,1.456-1.568-4.427,10.864-5.184Zm18.7-11.592q0,6.384-1.75,9.3A5.928,5.928,0,0,1,38.612.42a6.073,6.073,0,0,1-5.5-2.912A13.476,13.476,0,0,1,31.276-9.8q0-5.18,1.9-7.686a6.416,6.416,0,0,1,5.432-2.506,6.841,6.841,0,0,1,5.222,2.128A8.533,8.533,0,0,1,45.836-11.788ZM40.012-9.8v-1.344l-.143-1.2a4.471,4.471,0,0,0-.271-1.288,1.278,1.278,0,0,0-.485-.6,1.126,1.126,0,0,0-.585-.182.967.967,0,0,0-.9.546,4.25,4.25,0,0,0-.414,1.526l-.143,1.2v2.688l.143,1.232a6.651,6.651,0,0,0,.157.8,3.9,3.9,0,0,0,.328.812.851.851,0,0,0,.828.434.975.975,0,0,0,.543-.168q.657-.308.8-1.876l.143-1.232ZM62.02-11.788q0,6.384-1.75,9.3A5.928,5.928,0,0,1,54.8.42a6.073,6.073,0,0,1-5.5-2.912A13.476,13.476,0,0,1,47.46-9.8q0-5.18,1.9-7.686A6.416,6.416,0,0,1,54.8-19.992a6.841,6.841,0,0,1,5.222,2.128A8.533,8.533,0,0,1,62.02-11.788ZM56.2-9.8v-1.344l-.143-1.2a4.471,4.471,0,0,0-.271-1.288,1.278,1.278,0,0,0-.485-.6,1.126,1.126,0,0,0-.585-.182.967.967,0,0,0-.9.546,4.25,4.25,0,0,0-.414,1.526l-.143,1.2v2.688L53.4-7.224a6.651,6.651,0,0,0,.157.8,3.9,3.9,0,0,0,.328.812.851.851,0,0,0,.828.434.975.975,0,0,0,.543-.168q.657-.308.8-1.876L56.2-8.456ZM70.5-2.947,67,.581,63.448-2.947,67-6.475ZM82.684-.2,76.608.2V-12.8l-3.22,1.456L71.82-15.767l10.864-5.184Z" transform="translate(220.484 448)" fill="#4d565c"/>
  </g>
</svg>
