<svg xmlns="http://www.w3.org/2000/svg" width="32" height="33.165" viewBox="0 0 32 33.165">
  <path id="dove_1_" data-name="dove (1)" d="M38.036,17.412a2.582,2.582,0,0,1-.993-.557,2.418,2.418,0,0,1-.119-.221c-.3-.6-1.019-2.017-2.461-2.017a2.53,2.53,0,0,0-.707.106,4.5,4.5,0,0,0-2.481,1.951c-.274.378-.49.677-.733.723a1.142,1.142,0,0,1-.213.022c-.232,0-.362-.088-.387-.262a15.354,15.354,0,0,1-.048-2.332,12.054,12.054,0,0,0-.4-4.316,14.805,14.805,0,0,0-3.89-5.078c-.347-.335-.675-.651-.956-.942-.108-.133-.22-.255-.329-.372a3.8,3.8,0,0,1-.415-.5,11.653,11.653,0,0,1-1.074-2.329q-.04-.128-.08-.258a1.2,1.2,0,0,0-.142-.324C22.458.338,22.277,0,22,0a.375.375,0,0,0-.133.025c-.48.182-.586,1.178-.679,2.057A5,5,0,0,1,21,3.169a1.649,1.649,0,0,1-.476.6,1.589,1.589,0,0,0-.555.8,1.045,1.045,0,0,0,.1.832.979.979,0,0,1,.125.643,1.152,1.152,0,0,1-.347.638,1.151,1.151,0,0,0-.363.723,1.106,1.106,0,0,0,.343.82,1.006,1.006,0,0,1,.308.65c0,.225-.137.338-.306.48a.926.926,0,0,0-.407.975,1.148,1.148,0,0,0,.517.73c.206.163.332.272.323.458a2.077,2.077,0,0,1-.1.452,1.381,1.381,0,0,0,.088,1.289,6.378,6.378,0,0,0,.934.864,18.983,18.983,0,0,0-4.77-1.512,35.663,35.663,0,0,1-7.5-2.267,6.083,6.083,0,0,0-1.2-.426.117.117,0,0,0-.121.075c-.031.086.044.168.223.317l.483.4c.648.537,1.157.959,1.373,1.171q-.158-.056-.453-.184a.175.175,0,0,0-.233.04.214.214,0,0,0-.033.125c0,.572,1.647,3.385,3.923,6.1,1.642,1.959,4.8,5.245,7.477,5.245a3.126,3.126,0,0,0,.47-.035A31.952,31.952,0,0,1,12.465,28.6c-4.15,1.723-6.023,2.608-6.154,3.3a.467.467,0,0,0,.162.436.765.765,0,0,0,.536.258,1.1,1.1,0,0,0,.363-.081,1.127,1.127,0,0,1,.376-.083.912.912,0,0,1,.487.164,3,3,0,0,0,1.655.57,4.367,4.367,0,0,0,2.451-.972.842.842,0,0,1,.509-.177,1.823,1.823,0,0,1,.3.035,2.117,2.117,0,0,0,.363.039h0a1.437,1.437,0,0,0,.889-.348c2.284-1.751,4.775-2.079,7.413-2.426,3.111-.409,6.328-.833,9.788-3.494a9.663,9.663,0,0,0,3.91-5.5c.041-.136.079-.263.117-.382.385-1.194.611-1.473.893-1.57.187-.064.65-.251,1.059-.416.288-.116.536-.216.6-.24.1-.035.113-.1.112-.131S38.3,17.472,38.036,17.412Z" transform="translate(-6.303)" fill="#3dc946"/>
</svg>
