<svg xmlns="http://www.w3.org/2000/svg" width="24" height="24" viewBox="0 0 24 24">
  <path id="Icon_ionic-ios-settings" data-name="Icon ionic-ios-settings" d="M26.519,16.5A3.088,3.088,0,0,1,28.5,13.616a12.237,12.237,0,0,0-1.481-3.568,3.13,3.13,0,0,1-1.256.269,3.081,3.081,0,0,1-2.819-4.336A12.206,12.206,0,0,0,19.381,4.5a3.086,3.086,0,0,1-5.762,0A12.243,12.243,0,0,0,10.05,5.981a3.081,3.081,0,0,1-2.819,4.336,3.029,3.029,0,0,1-1.256-.269A12.507,12.507,0,0,0,4.5,13.623a3.086,3.086,0,0,1,.006,5.761,12.237,12.237,0,0,0,1.481,3.568,3.082,3.082,0,0,1,4.069,4.068A12.315,12.315,0,0,0,13.625,28.5a3.08,3.08,0,0,1,5.75,0,12.243,12.243,0,0,0,3.569-1.481,3.086,3.086,0,0,1,4.069-4.068,12.308,12.308,0,0,0,1.481-3.568A3.1,3.1,0,0,1,26.519,16.5Zm-9.962,4.992a5,5,0,1,1,5-5A5,5,0,0,1,16.556,21.489Z" transform="translate(-4.5 -4.5)" fill="#f8f8f8"/>
</svg>
