<svg xmlns="http://www.w3.org/2000/svg" width="14.609" height="24" viewBox="0 0 14.609 24">
  <path id="Icon_material-settings-voice" data-name="Icon material-settings-voice" d="M9.587,25.5h2.087V23.413H9.587ZM14.8,14.022a3.117,3.117,0,0,0,3.12-3.13l.01-6.261a3.13,3.13,0,1,0-6.261,0v6.261A3.126,3.126,0,0,0,14.8,14.022ZM13.761,25.5h2.087V23.413H13.761Zm4.174,0h2.087V23.413H17.935Zm4.174-14.609H20.335a5.414,5.414,0,0,1-5.53,5.322,5.414,5.414,0,0,1-5.53-5.322H7.5A7.287,7.287,0,0,0,13.761,17.9v3.423h2.087V17.9A7.287,7.287,0,0,0,22.109,10.891Z" transform="translate(-7.5 -1.5)" fill="#f8f8f8"/>
</svg>
